<svg xmlns="http://www.w3.org/2000/svg" xmlns:xlink="http://www.w3.org/1999/xlink">
    <symbol viewBox="0 0 69 13" id="webshop">
        <path d="M0.898438 1.11258H2.16908L4.89709 9.17736L8.13618 0.564453L11.2049 9.17736L14.2272 1.11258H15.4982L11.1584 12.4352L8.12056 3.82226L4.86584 12.4352L0.898438 1.11258ZM22.3175 1.11258V2.24174H18.1019V5.43529H22.1936V6.56445H18.1019V10.7416H22.3175V11.8708H16.9548V1.11258H22.3175ZM24.4254 1.11258H26.2852C27.3186 1.11258 28.1086 1.33865 28.6565 1.79C29.2762 2.28471 29.5864 3.02678 29.5864 4.01581C29.5864 4.94058 29.2453 5.6451 28.5635 6.12897C29.2245 6.30084 29.7181 6.64768 30.0436 7.1691C30.3691 7.69052 30.5316 8.24716 30.5316 8.83865C30.5316 9.32252 30.4312 9.76845 30.2296 10.1772C30.028 10.5856 29.7776 10.9139 29.4778 11.1612C28.899 11.6343 28.0725 11.8708 26.9979 11.8708H24.4254V1.11258ZM25.5722 2.24174V5.83865H26.44C26.5951 5.83865 26.745 5.83052 26.8897 5.81426C27.0344 5.798 27.2073 5.75503 27.4089 5.68536C27.6102 5.61529 27.7857 5.52123 27.9357 5.40316C28.0856 5.28471 28.212 5.10742 28.3154 4.8709C28.4188 4.634 28.4705 4.35994 28.4705 4.04832C28.4705 3.71503 28.4084 3.42703 28.2846 3.1851C28.1603 2.94316 28.0208 2.76316 27.8661 2.6451C27.711 2.52665 27.525 2.43529 27.3081 2.37065C27.0909 2.30639 26.9258 2.26845 26.8119 2.258C26.6985 2.24716 26.5847 2.24174 26.4712 2.24174H25.5722ZM25.5722 6.90316V10.7416H26.8897C27.7266 10.7416 28.3311 10.591 28.703 10.2903C29.1576 9.94613 29.3848 9.45142 29.3848 8.80613C29.3848 8.08574 29.0902 7.5589 28.5014 7.22561C28.1294 7.01039 27.5458 6.90316 26.7502 6.90316H25.5722ZM38.1726 2.61258L37.2583 3.24161C37.0928 2.90832 36.8915 2.63968 36.6538 2.43529C36.3436 2.18794 35.9564 2.06445 35.4914 2.06445C34.9748 2.06445 34.5563 2.21736 34.236 2.52394C33.9158 2.83052 33.7555 3.23116 33.7555 3.72549C33.7555 4.09129 33.8845 4.4029 34.143 4.6611C34.3495 4.87632 34.7114 5.102 35.2277 5.33852L36.2197 5.79026C36.9533 6.12355 37.4855 6.46226 37.8162 6.80639C38.3121 7.32239 38.5602 7.97271 38.5602 8.75774C38.5602 9.73632 38.2499 10.5322 37.6302 11.145C37.0102 11.7577 36.2302 12.0643 35.2898 12.0643C34.3599 12.0643 33.6108 11.774 33.0424 11.1934C32.5774 10.7203 32.2572 10.0859 32.0816 9.29L33.1975 8.96755C33.2697 9.50523 33.4765 9.962 33.8176 10.3386C34.1996 10.7362 34.6958 10.9352 35.3054 10.9352C35.9668 10.9352 36.4779 10.7285 36.8398 10.3143C37.2014 9.90045 37.3821 9.39761 37.3821 8.80613C37.3821 8.29013 37.2118 7.8709 36.8707 7.54807C36.6743 7.35452 36.261 7.10716 35.6309 6.80639L34.701 6.35465C34.0705 6.05349 33.6108 5.75774 33.3214 5.46742C32.8464 4.99439 32.6087 4.40832 32.6087 3.70961C32.6087 2.88161 32.8798 2.21232 33.4222 1.70136C33.9645 1.19078 34.6597 0.935292 35.5067 0.935292C36.1476 0.935292 36.7003 1.09671 37.1653 1.41916C37.589 1.70949 37.9245 2.10742 38.1726 2.61258ZM41.8149 1.11258V5.48368H47.1154V1.11258H48.2622V11.8708H47.1154V6.61284H41.8149V11.8708H40.6677V1.11258H41.8149ZM59.5685 10.4676C58.53 11.5321 57.2567 12.0643 55.748 12.0643C54.2397 12.0643 52.9661 11.5321 51.9276 10.4676C50.8894 9.40303 50.3701 8.08032 50.3701 6.49981C50.3701 4.90845 50.892 3.58303 51.9354 2.52394C52.9791 1.46484 54.2498 0.935292 55.748 0.935292C57.2463 0.935292 58.5173 1.46484 59.5607 2.52394C60.6045 3.58303 61.1259 4.90845 61.1259 6.49981C61.1259 8.08032 60.6071 9.40303 59.5685 10.4676ZM58.7238 3.35465C57.9077 2.49452 56.9156 2.06445 55.748 2.06445C54.5804 2.06445 53.5888 2.49452 52.7723 3.35465C51.9562 4.21478 51.5478 5.26342 51.5478 6.49981C51.5478 7.7362 51.9562 8.78484 52.7723 9.64497C53.5888 10.5051 54.5804 10.9352 55.748 10.9352C56.9156 10.9352 57.9077 10.5051 58.7238 9.64497C59.5403 8.78484 59.9483 7.7362 59.9483 6.49981C59.9483 5.26342 59.5403 4.21478 58.7238 3.35465ZM63.2339 1.11258H65.1094C66.287 1.11258 67.1552 1.36536 67.7131 1.8709C68.3432 2.42987 68.6583 3.19865 68.6583 4.17723C68.6583 5.01607 68.3871 5.72832 67.8448 6.31439C67.3025 6.90045 66.4834 7.19349 65.3883 7.19349H64.3807V11.8708H63.2339V1.11258ZM64.3807 2.24174V6.06432H65.3262C66.008 6.06432 66.5429 5.89245 66.9305 5.54832C67.3177 5.2042 67.5115 4.72574 67.5115 4.11258C67.5115 2.86536 66.7523 2.24174 65.2332 2.24174H64.3807Z"/>
        <path d="M0.00390625 1.12723H1.27492L4.00256 9.19201L7.24165 0.579102L10.3104 9.19201L13.3326 1.12723H14.6036L10.2639 12.4498L7.2264 3.83691L3.97168 12.4498L0.00390625 1.12723ZM21.4229 1.12723V2.25639H17.2074V5.44994H21.2991V6.5791H17.2074V10.7563H21.4229V11.8854H16.0606V1.12723H21.4229ZM23.5309 1.12723H25.3907C26.424 1.12723 27.2145 1.3533 27.762 1.80465C28.3821 2.29936 28.6919 3.04142 28.6919 4.03046C28.6919 4.95523 28.3508 5.65975 27.669 6.14362C28.3304 6.31549 28.8236 6.66233 29.1491 7.18375C29.4745 7.70517 29.6375 8.26181 29.6375 8.8533C29.6375 9.33717 29.5366 9.7831 29.335 10.1919C29.1334 10.6006 28.8831 10.9285 28.5833 11.1759C28.0049 11.6489 27.1784 11.8854 26.1038 11.8854H23.5309V1.12723ZM24.6776 2.25639V5.8533H25.5458C25.7005 5.8533 25.8504 5.84517 25.9951 5.82891C26.1398 5.81304 26.3128 5.76968 26.5144 5.70001C26.716 5.62994 26.8916 5.53588 27.0411 5.41781C27.191 5.29936 27.3179 5.12207 27.4209 4.88555C27.5243 4.64904 27.576 4.37459 27.576 4.06297C27.576 3.72968 27.5139 3.44207 27.39 3.20013C27.2662 2.95781 27.1267 2.77781 26.9716 2.65975C26.8164 2.5413 26.6305 2.44994 26.4136 2.3853C26.1968 2.32104 26.0312 2.2831 25.9178 2.27265C25.804 2.26181 25.6905 2.25639 25.5767 2.25639H24.6776ZM24.6776 6.91781V10.7563H25.9951C26.8321 10.7563 27.4365 10.6061 27.8085 10.3049C28.263 9.96078 28.4903 9.46607 28.4903 8.82078C28.4903 8.10039 28.1961 7.57355 27.6069 7.24026C27.2349 7.02504 26.6513 6.91781 25.8557 6.91781H24.6776ZM37.278 2.62723L36.3637 3.25626C36.1986 2.92297 35.997 2.65433 35.7593 2.44994C35.4494 2.20259 35.0619 2.0791 34.5969 2.0791C34.0802 2.0791 33.6618 2.232 33.3415 2.53859C33.0212 2.84517 32.8609 3.24581 32.8609 3.74013C32.8609 4.10594 32.9904 4.41755 33.2485 4.67575C33.4553 4.89097 33.8169 5.11665 34.3335 5.35317L35.3252 5.80491C36.0591 6.1382 36.591 6.47691 36.9217 6.82104C37.4175 7.33704 37.6656 7.98775 37.6656 8.77239C37.6656 9.75097 37.3558 10.5468 36.7357 11.1596C36.1156 11.7724 35.3356 12.079 34.3953 12.079C33.4654 12.079 32.7162 11.7886 32.1482 11.208C31.6833 10.735 31.363 10.1005 31.1871 9.30465L32.303 8.9822C32.3755 9.51988 32.5819 9.97704 32.923 10.3533C33.3054 10.7512 33.8013 10.9498 34.4109 10.9498C35.0723 10.9498 35.5837 10.7431 35.9453 10.3289C36.3068 9.9151 36.4876 9.41226 36.4876 8.82078C36.4876 8.30478 36.3172 7.88555 35.9762 7.56271C35.7801 7.36917 35.3665 7.1222 34.7364 6.82104L33.8065 6.3693C33.1763 6.06813 32.7162 5.77239 32.4272 5.48207C31.9518 5.00904 31.7141 4.42297 31.7141 3.72426C31.7141 2.89626 31.9853 2.22697 32.5276 1.716C33.0703 1.20542 33.7652 0.94994 34.6125 0.94994C35.253 0.94994 35.8058 1.11136 36.2707 1.43381C36.6944 1.72413 37.0303 2.12207 37.278 2.62723ZM40.9203 1.12723V5.49833H46.2209V1.12723H47.3677V11.8854H46.2209V6.62749H40.9203V11.8854H39.7736V1.12723H40.9203ZM58.674 10.4822C57.6358 11.5467 56.3622 12.079 54.8535 12.079C53.3452 12.079 52.0716 11.5467 51.0334 10.4822C49.9949 9.41768 49.4756 8.09497 49.4756 6.51446C49.4756 4.9231 49.9975 3.59768 51.0408 2.53859C52.0846 1.47949 53.3556 0.94994 54.8535 0.94994C56.3518 0.94994 57.6228 1.47949 58.6662 2.53859C59.7099 3.59768 60.2318 4.9231 60.2318 6.51446C60.2318 8.09497 59.7125 9.41768 58.674 10.4822ZM57.8292 3.3693C57.0132 2.50917 56.0211 2.0791 54.8535 2.0791C53.6859 2.0791 52.6942 2.50917 51.8778 3.3693C51.0617 4.22942 50.6536 5.27807 50.6536 6.51446C50.6536 7.75084 51.0617 8.79949 51.8778 9.65962C52.6942 10.5197 53.6859 10.9498 54.8535 10.9498C56.0211 10.9498 57.0132 10.5197 57.8292 9.65962C58.6457 8.79949 59.0538 7.75084 59.0538 6.51446C59.0538 5.27807 58.6457 4.22942 57.8292 3.3693ZM62.3394 1.12723H64.2148C65.3928 1.12723 66.2606 1.38 66.8186 1.88555C67.4491 2.44452 67.7641 3.2133 67.7641 4.19188C67.7641 5.03071 67.493 5.74297 66.9503 6.32904C66.4079 6.9151 65.5892 7.20813 64.4938 7.20813H63.4865V11.8854H62.3394V1.12723ZM63.4865 2.25639V6.07897H64.4317C65.1139 6.07897 65.6484 5.9071 66.036 5.56297C66.4236 5.21884 66.617 4.74039 66.617 4.12723C66.617 2.88 65.8578 2.25639 64.3387 2.25639H63.4865Z"/>
    </symbol>
    <symbol viewBox="0 0 28 28" id="arrow">
        <path d="M19.9308 8.16666L18.9992 9.1141L23.1446 13.3301L2.33325 13.3301L2.33325 14.67L23.1446 14.67L18.9992 18.8859L19.9308 19.8333L25.6666 14L19.9308 8.16666Z"/>
    </symbol>
</svg>